<svg width="110" height="18" viewBox="0 0 110 18" fill="none" xmlns="http://www.w3.org/2000/svg">
<path d="M0 11.3126C0 7.61487 2.84608 4.81659 6.64158 4.81659C9.87656 4.81659 12.4315 6.85882 12.9421 9.77877H10.046C9.60716 8.39266 8.27102 7.44324 6.63941 7.44324C4.44945 7.44324 2.79611 9.12265 2.79611 11.3104C2.79611 13.4982 4.45162 15.1798 6.63941 15.1798C8.26885 15.1798 9.60716 14.2304 10.046 12.8443H12.9421C12.4315 15.7642 9.87656 17.8065 6.64158 17.8065C2.84608 17.8065 0 15.0082 0 11.3104" fill="#160D3F"/>
<path d="M49.5347 11.3126C49.5347 7.61487 52.3807 4.81659 56.1524 4.81659C59.924 4.81659 62.7939 7.61488 62.7939 11.3365C62.7939 11.6776 62.77 12.0426 62.7201 12.3576H52.4546C52.8674 14.1587 54.3274 15.3493 56.274 15.3493C57.7101 15.3493 58.9506 14.717 59.5829 13.7676H62.5984C61.6012 16.177 59.1679 17.8065 56.224 17.8065C52.3808 17.8065 49.5347 15.0082 49.5347 11.3104M52.4785 10.1199H59.874C59.4612 8.41656 58.0012 7.27378 56.1524 7.27378C54.3035 7.27378 52.9174 8.39266 52.4785 10.1199Z" fill="#160D3F"/>
<path d="M64.1216 11.3126C64.1216 7.61488 66.7243 4.81659 70.2287 4.81659C72.0537 4.81659 73.5615 5.59437 74.5826 6.88489V5.10772H77.307V17.5153H74.5826V15.7403C73.5615 17.0287 72.0515 17.8086 70.2287 17.8086C66.7243 17.8086 64.1216 15.0103 64.1216 11.3126ZM74.5826 11.3126C74.5826 9.12265 72.9531 7.44541 70.7632 7.44541C68.5732 7.44541 66.9199 9.12482 66.9199 11.3126C66.9199 13.5004 68.5493 15.182 70.7632 15.182C72.977 15.182 74.5826 13.5026 74.5826 11.3126Z" fill="#160D3F"/>
<path d="M92.8779 1.73807L95.6023 0V17.5154H92.8779V1.73807Z" fill="#160D3F"/>
<path d="M96.7407 11.3126C96.7407 7.61487 99.5868 4.81659 103.358 4.81659C107.13 4.81659 110 7.61488 110 11.3365C110 11.6776 109.976 12.0426 109.926 12.3576H99.6607C100.073 14.1587 101.533 15.3493 103.48 15.3493C104.916 15.3493 106.157 14.717 106.789 13.7676H109.807C108.809 16.177 106.376 17.8065 103.432 17.8065C99.589 17.8065 96.7429 15.0082 96.7429 11.3104M99.6846 10.1199H107.08C106.667 8.41656 105.207 7.27378 103.358 7.27378C101.51 7.27378 100.123 8.39266 99.6846 10.1199Z" fill="#160D3F"/>
<path d="M45.6719 1.73807V6.88491C44.6508 5.5944 43.143 4.81661 41.3181 4.81661C37.8159 4.81661 35.2109 7.6149 35.2109 11.3126C35.2109 15.0104 37.8137 17.8087 41.3181 17.8087C41.8873 17.8087 42.4196 17.7261 42.9214 17.5827L44.3814 14.2565C43.7188 14.8366 42.8454 15.182 41.8547 15.182C39.6408 15.182 38.0114 13.5026 38.0114 11.3126C38.0114 9.12267 39.6408 7.44544 41.8547 7.44544C44.0686 7.44544 45.6741 9.12484 45.6741 11.3126V17.5154H48.3985V0L45.6741 1.73807H45.6719Z" fill="#160D3F"/>
<path d="M85.6083 4.81661C83.7833 4.81661 82.2755 5.5944 81.2283 6.88491V0L78.5039 1.73807V17.5154H81.2283V11.3126C81.2283 9.12267 82.8817 7.44327 85.0716 7.44327C87.2616 7.44327 88.891 9.12267 88.891 11.3105C88.891 13.4983 87.2616 15.1798 85.0716 15.1798C84.0679 15.1798 83.1815 14.8257 82.5101 14.2326L83.9766 17.5718C84.4872 17.7196 85.0282 17.8065 85.6061 17.8065C89.0844 17.8065 91.7132 15.0082 91.7132 11.3105C91.7132 7.61273 89.0866 4.81444 85.6061 4.81444" fill="#160D3F"/>
<path d="M19.3707 11.3126L24.0656 6.61984L25.5169 5.16638H22.6122H20.6677L14.5215 11.3126L20.6112 17.4045L23.0358 14.9799L19.3707 11.3126Z" fill="#160D3F"/>
<path d="M27.5202 5.22504L25.0934 7.64964L28.7585 11.3126L24.0658 16.0097L22.6123 17.461H25.517H27.4615L33.6099 11.3126L27.5202 5.22504Z" fill="#160D3F"/>
<path d="M24.0546 8.68834L21.4307 11.3123L24.0546 13.9362L26.6785 11.3123L24.0546 8.68834Z" fill="#160D3F"/>
</svg>
